<?xml version="1.0" standalone="no"?><!DOCTYPE svg PUBLIC "-//W3C//DTD SVG 1.1//EN" "http://www.w3.org/Graphics/SVG/1.1/DTD/svg11.dtd"><svg t="1720483764722" class="icon" viewBox="0 0 1024 1024" version="1.1" xmlns="http://www.w3.org/2000/svg" p-id="8899" data-darkreader-inline-fill="" width="128" height="128" xmlns:xlink="http://www.w3.org/1999/xlink"><path d="M191.8 399.3c-39 2.7-75.3 5.6-91.9 5.6-13.9 2.7-22.2 13.9-30.7 30.7-8.3 19.5-8.3 22.2 11.2 30.7 19.5 8.3 36.3 13.9 36.3 13.9s-22.2 44.6-33.4 64.1c-5.6 11.2-5.6 11.2-8.3 33.4v225.6c0 22.2 5.6 30.7 25.1 30.7h111.3c19.5 0 25.1-11.2 25.1-25.1v-47.3h206.1V482.9H214.2c-11.2 0 8.3-44.6 36.3-80.7 44.6-55.8 55.8-50.2 64.1-50.2h128.1v-61.2H292.4c-11.4-0.1-56 50-100.6 108.5z m64.1 169.8c33.4 5.6 39 19.5 39 25.1v39s-108.7-2.7-136.4-5.6c-39-2.7-25.1-55.8-25.1-69.7-0.1-2.7 92 5.6 122.5 11.2z m673.6-323H871v44.6c0 16.8-13.9 30.7-30.7 30.7H589.9c-16.8 0-30.7-13.9-30.7-30.7v-44.6h-44.6c-16.8 0-30.7 13.9-30.7 30.7v528.9c0 16.8 13.9 30.7 30.7 30.7h414.7c16.8 0 30.7-13.9 30.7-30.7V276.8c0.2-16.8-13.7-30.7-30.5-30.7zM637.4 702.6h-58.5v-58.5h58.5v58.5z m0-119.6h-58.5v-58.5h58.5V583z m27.8-175.4h-13.9v13.9h-13.9v13.9h-13.9v13.9h-13.9v13.9h-30.7v-13.9H565v-13.9h-13.9v-13.9h30.5v13.9h27.8v-13.9h13.9v-13.9h13.9v-13.9h30.7v13.9h-2.7z m236.5 278.5H695.6v-30.7h206.1v30.7z m0-117H695.6v-30.7h206.1v30.7z m0-116.9H695.6v-30.7h206.1v30.7z" p-id="8900" fill="#1296db" data-darkreader-inline-fill="" style="--darkreader-inline-fill: #0e78af;"></path><path d="M623.3 290.7h192c16.8 0 30.7-13.9 30.7-30.7v-41.7c0-16.8-13.9-30.7-30.7-30.7h-192c-16.8 0-30.7 13.9-30.7 30.7V260c0.2 16.8 14.1 30.7 30.7 30.7z m14.1-72.4h161.5c8.3 0 13.9 5.6 13.9 13.9s-5.6 13.9-13.9 13.9H637.4c-8.3 0-13.9-5.6-13.9-13.9-0.2-8.3 5.4-13.9 13.9-13.9z" p-id="8901" fill="#1296db" data-darkreader-inline-fill="" style="--darkreader-inline-fill: #0e78af;"></path></svg>